PathFileType	4	(X/Y/Z)	C:/Users/beibeiliu/ov580/test_trc/User3\sequence.50_training_dense_right.trc
DataRate	CameraRate	NumFrames	NumMarkers	Units	OrigDataRate	OrigDataStartFrame	OrigNumFrames
120	120	12	19	mm	120	62	92
Frame#	Time	ThumbCMC			ThumbMCP			ThumbIP			ThumbTip			IndexMCP			IndexPIP			IndexTip			MiddleMCP			MiddlePIP			MiddleTip			RingMCP			RingPIP			RingTip			PinkyMCP			PinkyPIP			PinkyTip			BackHand1			BackHand2			BackHand3	
		X0	Y0	Z0	X1	Y1	Z1	X2	Y2	Z2	X3	Y3	Z3	X4	Y4	Z4	X5	Y5	Z5	X6	Y6	Z6	X7	Y7	Z7	X8	Y8	Z8	X9	Y9	Z9	X10	Y10	Z10	X11	Y11	Z11	X12	Y12	Z12	X13	Y13	Z13	X14	Y14	Z14	X15	Y15	Z15	X16	Y16	Z16	X17	Y17	Z17	X18	Y18	Z18	
61	0.508333	96.6948	8.48484	67.0671	74.4096	4.77944	48.6523	58.5204	1.29218	22.4805	51.6331	-6.0495	4.37086	116.534	14.0708	-2.83601	116.244	13.6477	-32.3501	111.665	15.9439	-54.133	134.063	-13.0908	-8.76078	119.068	-28.4409	-34.4502	103.821	-53.0828	-50.0488	144.788	-26.0707	-2.84454	140.396	-40.8401	-19.9828	131.964	-62.671	-36.4013	164.528	-35.7323	12.3058	167.162	-48.0148	-0.857444	170.723	-60.0309	-25.2059	158.857	-2.22658	45.9321	161.171	1.56195	77.094	130.077	20.3988	59.2434	
62	0.516667	97.0324	6.76185	69.4725	78.0782	1.38901	47.6288	62.2229	-1.22363	19.2384	52.6331	-7.13395	2.67255	116.845	7.39788	-4.00431	111.905	4.06573	-28.7402	104.609	3.7247	-55.6347	129.95	-17.9382	-12.9075	114.646	-34.4064	-28.8993	98.5561	-65.2705	-39.8093	149.378	-26.505	-1.22653	140.39	-39.6385	-25.3553	133.514	-61.2528	-43.8016	169.944	-35.1525	16.7204	173.085	-43.0631	-4.48468	178.396	-51.2263	-25.9406	158.693	-1.9783	49.3236	163.847	-0.173698	79.8553	131.918	15.7295	58.9963	
63	0.525	97.7788	5.43213	68.8882	80.0835	0.283183	46.1913	64.8654	-3.03864	20.6073	58.131	-12.986	-2.43141	117.371	4.05429	-4.74633	104.78	-1.01555	-32.0051	101.286	-16.5366	-53.7269	131.964	-15.0764	-9.74046	117.728	-32.5068	-27.6689	99.075	-67.8728	-34.3717	152.752	-22.1853	-0.686198	147.534	-35.7952	-24.7617	137.511	-55.6852	-41.9093	171.717	-31.99	17.6735	174.713	-37.0226	-1.8156	183.459	-46.6216	-23.9034	161.25	-0.589998	46.9163	163.272	-0.0519929	80.9872	130.965	16.6094	60.2904	
64	0.533333	100.513	4.28203	74.4663	80.1666	-0.568785	43.6159	68.391	-8.54215	20.9017	71.7694	-22.056	-3.8536	116.997	9.56753	-2.98812	106.414	-5.04242	-33.5091	97.7848	-28.0207	-46.1399	133.933	-4.26326	-10.8941	124.596	-25.9106	-32.5442	102.537	-56.2609	-31.395	155.653	-13.712	-0.980507	151.566	-30.2785	-30.121	136.746	-49.5774	-39.5081	171.832	-26.6302	16.5019	177.825	-35.1962	-6.45377	178.592	-50.5512	-26.0996	163.073	-0.542385	47.7107	165.582	1.29218	80.5317	134.519	17.078	63.5241	
65	0.541667	100.324	5.51717	71.0798	85.4153	-4.16675	43.7778	75.2417	-12.6074	17.2826	83.9719	-29.5444	-1.5633	122.626	12.758	-2.51931	115.869	-4.64011	-32.5397	100.137	-27.6119	-36.6903	144.017	1.37434	-13.5375	131.654	-15.8389	-35.3013	108.858	-44.9498	-27.1121	156.769	-7.81888	-3.01566	150.919	-23.3212	-28.3371	130.43	-49.0327	-29.0393	172.157	-24.387	13.6461	173.155	-38.7249	-10.4231	159.319	-54.7187	-21.8824	163.88	1.03162	51.1053	163.865	1.91513	81.9746	138.536	20.0048	60.8814	
66	0.55	101.595	7.07639	69.0384	87.0834	-5.07846	42.5398	81.0466	-16.227	11.3915	96.4929	-33.8775	-0.686828	128.285	15.1899	-5.48273	117.54	4.76495	-32.9846	97.5465	-24.7136	-26.1405	147.642	7.27121	-9.04332	136.668	-9.70848	-36.5918	114.449	-39.3245	-18.2018	161.1	-7.9488	-5.47706	149.741	-28.5365	-26.8971	128.292	-46.6649	-15.4201	170.913	-25.3234	11.9837	165.05	-39.1021	-8.86892	141.618	-61.2772	-6.57381	168.275	1.01592	47.1876	167.067	0.345882	78.7769	139.394	20.015	63.3204	
67	0.558333	103.243	8.13405	68.8981	90.0266	-5.68682	40.0289	89.8551	-19.1319	11.2913	101.525	-36.6994	-1.05419	132.115	18.7663	-4.35516	118.525	7.01764	-31.8066	102.445	-19.2525	-19.237	149.323	11.1353	-12.3231	140.946	-6.53507	-35.3993	119.235	-31.8939	-14.8635	162.124	-9.85817	-0.994734	148.487	-28.3138	-23.2141	127.524	-43.9231	-2.10731	169.758	-30.047	10.6928	150.007	-45.3794	-6.69296	132.437	-59.0564	10.2542	168.509	1.10664	50.7559	171.298	-0.888217	82.17	140.854	22.632	61.2837	
68	0.566667	105.611	7.17032	68.9525	92.7217	-6.27979	42.081	84.9037	-19.5705	11.1397	101.164	-37.4673	-3.31686	133.407	20.0305	-1.59405	122.96	8.6398	-31.0678	101.51	-13.2503	-16.1095	153.969	9.29359	-12.805	140.338	-7.74747	-33.3981	119.401	-30.0422	-7.88786	161.523	-13.7618	-3.36291	142.509	-32.3019	-18.2224	123.641	-40.1727	11.2143	164.517	-32.4418	9.20243	146.153	-47.234	0.608094	127.525	-52.1554	27.6843	168.977	2.28746	51.0748	171.577	-1.05297	79.071	146.657	19.9252	61.9204	
69	0.575	110.713	5.77303	66.1468	94.1859	-6.36813	42.1817	86.2071	-17.9342	10.6554	94.9619	-34.6664	-3.18684	131.095	23.267	-5.43341	117.812	9.00906	-29.689	100.441	-13.2066	-12.8102	149.633	9.1322	-11.1326	132.49	-9.64895	-31.3309	120.093	-31	0.414331	158.052	-14.662	-1.74129	137.586	-34.1064	-13.3056	127.309	-40.9582	20.2056	159.529	-32.5497	8.50961	143.019	-52.7142	7.59183	131.496	-50.9814	35.1734	172.656	1.00348	48.2144	169.279	0.989282	82.513	143.577	20.9007	66.6718	
70	0.583333	110.529	6.8851	70.2984	93.7465	-3.767	41.951	79.7614	-11.2708	14.0978	86.7026	-26.661	-6.36175	131.829	21.5442	-6.21966	113.38	7.0342	-26.622	97.0506	-14.0386	-2.65958	148.673	5.78828	-10.1394	126.241	-11.321	-26.7963	117.265	-29.8393	7.38071	153.571	-12.5124	-1.01632	133.891	-34.414	-9.7831	122.825	-36.0972	23.2323	159.042	-30.4849	8.03273	137.917	-48.9218	12.0401	130.005	-44.7053	36.8473	172.249	1.68276	47.6304	171.254	0.301526	78.5324	147.325	23.2629	65.4598	
71	0.591667	110.095	10.1415	70.8947	89.1171	3.80012	46.676	81.0678	-4.22435	16.5264	80.4933	-16.6033	-7.12936	126.795	23.9519	-2.53822	109.646	1.74937	-20.5424	95.294	-13.6487	2.18789	139.722	8.54306	-10.7386	120.533	-13.0796	-20.6765	113.664	-24.7792	20.3451	151.592	-10.1341	-1.70888	135.558	-33.6191	-5.25154	124.545	-32.091	29.7708	162.139	-26.7548	10.6301	140.062	-41.8327	7.83147	133.172	-41.0912	35.4012	173.947	6.44621	51.8191	171.092	1.96804	84.7197	144.861	22.7566	70.7147	
72	0.6	109.66	12.1987	75.8863	89.1185	9.16467	45.7281	79.1381	4.14193	18.035	80.2824	-7.68753	-4.3862	124.521	25.0597	1.25176	103.095	-0.25633	-13.7975	97.8314	-14.5647	14.9121	137.409	10.4097	-7.81445	118.778	-15.1691	-14.1731	113.12	-21.7316	23.2159	150.321	-3.65819	0.223521	128.819	-27.5262	-2.55947	127.852	-29.4058	31.4065	162.396	-17.5254	9.82445	139.432	-35.5243	7.17877	135.072	-37.294	37.4933	172.296	11.2918	51.9134	173.134	4.96059	79.2858	142.47	28.2449	67.5591	
